<svg width="436" height="13" fill="none" xmlns="http://www.w3.org/2000/svg"><path fill-rule="evenodd" clip-rule="evenodd" d="M.475 2c88.768 4.5 153.407 3.5 215.913 1.875 7.797-.203 15.56-.415 23.333-.628C294.26 1.755 349.261.25 419.488 2l.024-1c-70.253-1.75-125.28-.245-179.82 1.247-7.772.213-15.535.425-23.33.628C153.868 4.5 89.257 5.5.525 1.001l-.05.998zm16 7c88.768 4.5 153.407 3.5 215.913 1.875 7.797-.203 15.56-.415 23.333-.628C310.26 8.755 365.261 7.25 435.488 9l.024-1c-70.253-1.75-125.28-.245-179.82 1.247-7.772.213-15.535.425-23.33.628C169.868 11.5 105.257 12.5 16.525 8.001l-.05.998z" fill="#fff"/></svg>